<?xml version="1.0" encoding="UTF-8"?>
<svg width="45px" height="45px" id="emoji" viewBox="0 0 65 65" version="1.1" xmlns="http://www.w3.org/2000/svg" xmlns:bx="https://boxy-svg.com">
  <g id="color" transform="matrix(1.083333, 0, 0, 1.083333, -6.499989, -6.499989)">
    <circle cx="36" cy="36" r="24" fill="#FCEA2B"></circle>
    <path stroke="#fff" stroke-linecap="round" stroke-linejoin="round" stroke-miterlimit="10" stroke-width="2" d="m58.87 38.37-14.28 13.6"></path>
    <path fill="#fff" d="m40.55 55.13c-1.106 0.342-8.026 0.6917-9.083 0.2118-9.386-4.261-9.325-11.73-10.13-16.94 2.693-1.103 26.93-0.07676 28.96-0.1059-0.5355 9.32-2.022 11.1-9.751 16.84z"></path>
    <path stroke="#fff" stroke-linecap="round" stroke-linejoin="round" stroke-miterlimit="10" stroke-width="2" d="m58.91 34.37-8.4 4.853"></path>
    <path stroke="#fff" stroke-linecap="round" stroke-linejoin="round" stroke-miterlimit="10" stroke-width="2" d="m13.17 38.37 13.96 13.6"></path>
    <path stroke="#fff" stroke-linecap="round" stroke-linejoin="round" stroke-miterlimit="10" stroke-width="2" d="m13.13 34.37 8.4 4.853"></path>
  </g>
  <g id="line" fill="none" stroke="#000" stroke-linecap="round" stroke-linejoin="round" stroke-miterlimit="10" stroke-width="2" transform="matrix(1.083333, 0, 0, 1.083333, -6.499989, -6.499989)">
    <path d="m47.79 45.69"></path>
    <path d="m23.24 32.01s3.439-2.888 7.849-1.546"></path>
    <path d="m48.76 32.01s-3.439-2.888-7.849-1.546"></path>
    <path d="m58.91 33.52-8.427 4.775"></path>
    <path d="m58.23 30.14c-2.588-9.842-11.54-17.11-22.19-17.14-10.68-0.025-19.68 7.237-22.29 17.1"></path>
    <path d="m14.49 44.21c3.298 8.63 11.65 14.77 21.44 14.79 9.833 0.02297 18.24-6.128 21.55-14.8"></path>
    <path d="m13.12 33.5"></path>
    <path d="m21.52 38.4 28.96-0.1059c0 22.21-28.96 22.25-28.96 0.1118z"></path>
    <path d="m58.96 37.35-10.59 10.3"></path>
    <path d="m13.05 33.52 8.427 4.775"></path>
    <path d="m13 37.35 10.59 10.3"></path>
  </g>
</svg>